<svg xmlns="http://www.w3.org/2000/svg" viewBox="0 0 507.77 109.5"><defs><style>.a{fill:#009fe3;fill-rule:evenodd;}</style></defs><path class="a" d="M325,80c-1.64.44-2.27-.19-1.7-1.51a18.73,18.73,0,0,1,7.36-9.64c3.82-2,6.49-2.18,8.12-.37a3.71,3.71,0,0,1-.75,5.16A36.62,36.62,0,0,1,325,80Zm-162-23.55a22.75,22.75,0,0,1,2.9,5.67c.34,1.39,1.56.86,2.15.57,11.33-4,22.55-7.25,33.55-8.58.52-.16,1.12.14.83.64L199,63a233.85,233.85,0,0,0-27.44,7.66c-1,.48-1.2,1.23-.72,2.37a29.06,29.06,0,0,1,3.37,5.8,1.12,1.12,0,0,0,1.52.34A122.59,122.59,0,0,1,193,74.32c.62-.18,1.37-.09,1.11.79-5.87,13.45-11,29.6-15.61,38.25-3.88,5.54-7.78,6.16-14.32-.56a1.58,1.58,0,0,0-2.27.38,61.54,61.54,0,0,1-4.73,4.91,1.56,1.56,0,0,0-.19,2.33l4.61,3.79c15.43,13.94,37.1,8.62,46.29-11.29l18.23-41.84a1,1,0,0,1,1-.6l16.35.14c.71,0,1.11.33.85,1L233.91,97.15c-2.32,4.68.52,9.78,5.36,9.78l21.06.82c1.2-.29,1.45-1.22,1.14-1.83a5.16,5.16,0,0,1-1.52-5.61c3.47-7.9,6.56-17.51,10.15-23.15,2-3.5,9.12-2.59,6.63,3.35-2.64,4.75.75,7.47,4.6,7.88l12.68,1c.32,13.83,13.41,21.9,24.48,19.55,12.66-2.17,24.92-7.17,37.07-12.86.43-.22.9.07.64.57-1,2.72-2.48,5.51-2.69,7.47-.2,2.53,2.33,3.88,6.47,3.31a39.79,39.79,0,0,1,13-.38c3.26.62,5.22.11,6.24-2.84l9.53-22.51c1.55-3.11,4.31-5.24,7.86-4.33,3.19,1.29,2.09,3.14.59,7.1-2.65,6.43-5.61,12.87-7.95,19.3-.69,1.24-.43,2.61,1.15,3.72,2.32,1.92,3.62-.1,5.66-.08a44.88,44.88,0,0,1,12.24.08c1.28.09,2.56.3,3.84.27,2.42-.43,3-2.81,3.85-4.43,3.3-7.19,6.54-15.77,9.9-21.57,1.71-2.56,4-3.78,6.88-2.89,1.81.53,2.28,2.36,1.41,4.55-3.42,9.43-10.73,18.09-3.56,23.75,8.84,5.72,19.76-2.51,32.77-9,.57-.32,1-.23,1.23.28,8.81,15.43,25.5,11.56,37.9.35.47-.61.93-.41,1,0,.82,6.1,3.22,10.1,13,10.4,11.22.1,21.1-9,34-18.34,1.22-1.56,1.07-2.74.2-3.85l-2.53-3.54c-1.09-1.52-2.81-.13-4.29,1.77a28.83,28.83,0,0,1-6.24,5.93c-1.68,1.3-5.25,1-3.53-2.46l9.21-22.39c1.26-3.53-1.22-7.22-4.87-6a39.44,39.44,0,0,1-16,.06c-2.92-.49-5,.78-5.37,3.19-.18,1-.79.77-1.31.66-12.74-6.49-25.54-6.1-37.46,2.84-6,4.51-11.7,11.88-15.71,22l-4.23,1.64c-2,.83-2.33-.93,0-5.87,3-6.93,5-10.77,2.09-17.66-6-12.36-24.32-8.57-33.12,1.77-.54.33-.86.23-1.07-.44-4.55-12.13-22-10.42-30.46-2.78-.84.72-1.76.27-1.26-.38l.57-2.83c.32-2.25-2.41-3.05-5.49-1.9-3.74,1.16-9.43.51-13.18-.5q-4.26-.95-5.74,2.9L362.37,82a127.3,127.3,0,0,1-19,9.84c-10.58,4-15.17,4.06-19.3-1.08-.57-1-.19-1.47,1.48-1.73,7.85-1.34,8.94-1.69,13.4-3.12,6.23-2,12.57-4.62,16.91-8.33a11.79,11.79,0,0,0-5.93-20.05c-21.47-5.38-42.49,5.24-53.23,21.44-1.05,1.45-2.11,1-1.77-.13,2.72-6.89,3.71-8.36,4.57-11a7,7,0,0,0-5.71-9c-6.1-1-12.08,1.06-17.59,5.49-.25.24-.79.2-.76-.22.48-4.86-1.65-5.6-8.26-4.32-4.82.65-8.88.56-11.86-.63-2.58-.92-4.89-.68-6.81,1.26l-17.24-.16c-.55.07-.76-.13-.61-.6,1.06-4.16,3.27-5.67,7.51-5.3l10.6.13c5.71,0,9.37-4.31,11.73-11,.23-.74-.33-1-1.27-.94l-38.78-.26a172.45,172.45,0,0,0-56.2,11c-1.62.58-2.15,1.8-1.13,3.28ZM503.77,70.21c4.11-1.64,6.25.06,5.54,4.78-1.06,5.87-5.94,12.93-13.29,16.24q-5.91,1.6-5.29-4.84C492.24,79.25,496.61,74.13,503.77,70.21Z" transform="translate(-43.61 -27.33)"/><path class="a" d="M99.65,43.35a61.23,61.23,0,0,1,7.93-13.91,1.87,1.87,0,0,1,2.06-.74,38.23,38.23,0,0,1,10.28,3.47.93.93,0,0,1,.49,1.29l-1.94,3.69a1.5,1.5,0,0,0,.56,2.18,44.41,44.41,0,0,0,15.95,4,1.92,1.92,0,0,1,1.57.67,65.1,65.1,0,0,1,11.14,17.41.74.74,0,0,1-.57.93h-16.7c-.8-.15-1.34-.11-1.61-.8A36.91,36.91,0,0,0,100.47,45C99.45,44.92,99.29,44.09,99.65,43.35Z" transform="translate(-43.61 -27.33)"/><path class="a" d="M102.64,46.83c-.56-.12-.79.47-.28.75a47.37,47.37,0,0,1,12.56,14.74.7.7,0,0,0,.72.43l11.09.16c.32,0,.54-.45.39-.76A34.07,34.07,0,0,0,102.64,46.83Z" transform="translate(-43.61 -27.33)"/><path class="a" d="M66.49,60.87a72.35,72.35,0,0,1-9-15,1.49,1.49,0,0,1,.2-1.63,37.61,37.61,0,0,1,8.69-7.41.77.77,0,0,1,1.24.3c.91,1.39,1.78,2.8,2.74,4a1.16,1.16,0,0,0,1.61.27c4.69-3.23,7.45-6.63,10.6-11.53a3.28,3.28,0,0,1,1.88-1.3,72.32,72.32,0,0,1,21.11-.79c.38.05.74.53.26,1.13a71.41,71.41,0,0,0-8.29,14.84c-.4,1.14-.76,1.08-1.62,1.19-10.52.59-20.64,5.51-28.13,15.76C67.64,61,67,61.63,66.49,60.87Z" transform="translate(-43.61 -27.33)"/><path class="a" d="M93.61,46.84c.56-.11,1,.27.51.67A48.19,48.19,0,0,0,81.25,62.16a.69.69,0,0,1-.73.42l-11.08-.11c-.33,0-.54-.46-.38-.77C74.94,53.44,82.86,48,93.61,46.84Z" transform="translate(-43.61 -27.33)"/><path class="a" d="M96.11,48.21c.43-.34,1.07-.22,1.09.66l0,12.67c0,.69-.21,1.05-.92,1.09l-11.7-.2c-.73,0-.93-.46-.75-1C87,55.76,92.47,50.07,96.11,48.21Z" transform="translate(-43.61 -27.33)"/><path class="a" d="M99,48.52a.6.6,0,0,1,.9-.58A44.3,44.3,0,0,1,112.4,61.4c.37.61.29,1.13-.3,1.23l-12.23-.11c-.57,0-.94-.34-.94-1.06Z" transform="translate(-43.61 -27.33)"/><path class="a" d="M102,116.91c-.58.12-.81-.48-.27-.75a48.54,48.54,0,0,0,13.17-14.74.73.73,0,0,1,.75-.44l11.47,0c.34,0,.56.46.4.78A35.34,35.34,0,0,1,102,116.91Z" transform="translate(-43.61 -27.33)"/><path class="a" d="M93.71,116.65c.57.11,1-.26.53-.66a48.54,48.54,0,0,1-12.9-14.8.71.71,0,0,0-.73-.43H69.36c-.33,0-.55.45-.39.76C74.85,109.83,82.81,115.34,93.71,116.65Z" transform="translate(-43.61 -27.33)"/><path class="a" d="M96,115.3c.43.36,1.07.24,1.11-.64L97.21,102c0-.69-.2-1.06-.91-1.1L84.54,101c-.72,0-.94.45-.76,1C86.93,107.65,92.35,113.41,96,115.3Z" transform="translate(-43.61 -27.33)"/><path class="a" d="M98.34,115a.6.6,0,0,0,.9.59A44.28,44.28,0,0,0,112,102.29c.38-.6.3-1.12-.28-1.23l-12.29,0c-.57,0-1,.33-1,1Z" transform="translate(-43.61 -27.33)"/><path class="a" d="M116.27,65.62a.89.89,0,0,1,.79-1.35l10.58.19a1.51,1.51,0,0,1,1.52.75,36.79,36.79,0,0,1,4,14.33.82.82,0,0,1-.89,1l-11.68-.16c-.64,0-1.11,0-1.18-.83A37.15,37.15,0,0,0,116.27,65.62Z" transform="translate(-43.61 -27.33)"/><path class="a" d="M98.8,65.13c0-.48.07-1,.82-1l12.88.1a1.91,1.91,0,0,1,1.82.88c2.13,4.13,3.08,8.9,3.37,14.37,0,.71-.31,1-1.06,1L100,80.43c-.88,0-1.1-.38-1.11-1.08Z" transform="translate(-43.61 -27.33)"/><path class="a" d="M97.36,65.13c0-.47-.07-1-.81-1l-12.75,0A1.9,1.9,0,0,0,82,65c-2.16,4.11-3.16,8.87-3.5,14.33,0,.72.3,1,1,1l16.5.13c.87,0,1.1-.38,1.12-1.07Z" transform="translate(-43.61 -27.33)"/><path class="a" d="M80,65.29a.9.9,0,0,0-.78-1.38L68.6,64a1.6,1.6,0,0,0-1.54.74,30.17,30.17,0,0,0-4.34,14.52.92.92,0,0,0,1,1.06l11.75,0c.64,0,1.22,0,1.3-.83A38.23,38.23,0,0,1,80,65.29Z" transform="translate(-43.61 -27.33)"/><path class="a" d="M131.82,64.34a140.76,140.76,0,0,1,16.32.21,1.29,1.29,0,0,1,1,1,78.13,78.13,0,0,1,2.16,11.93c.05.8-.3.84-.66.89l-4.25.18c-1,.06-1.55.27-1.58,1.23a45.66,45.66,0,0,0,4.26,16.07,1.88,1.88,0,0,1,.35,1.69c-2.25,6.8-4.83,12.89-8.92,18.46-.17.16-.43.28-.64,0a101.47,101.47,0,0,0-9.22-14.82,1,1,0,0,1-.11-1.43,40,40,0,0,0,.68-34.27C130.79,64.56,131,64.39,131.82,64.34Z" transform="translate(-43.61 -27.33)"/><path class="a" d="M116.1,97.71a.92.92,0,0,0,.82,1.38l10.84-.19a1.55,1.55,0,0,0,1.56-.77,37.62,37.62,0,0,0,4.13-14.7.84.84,0,0,0-.91-1.05l-12,.17c-.65,0-1.13,0-1.21.85A38.15,38.15,0,0,1,116.1,97.71Z" transform="translate(-43.61 -27.33)"/><path class="a" d="M98.63,98c0,.48.07,1,.82,1l12.88-.1a1.91,1.91,0,0,0,1.82-.9c2.13-4.18,3.08-9,3.37-14.56,0-.72-.32-1-1.06-1l-16.67.06c-.88,0-1.1.39-1.11,1.1Z" transform="translate(-43.61 -27.33)"/><path class="a" d="M97.19,98.13c0,.49-.07,1-.81,1l-12.75,0a1.86,1.86,0,0,1-1.81-.9c-2.16-4.26-3.16-9.2-3.51-14.86,0-.74.31-1.08,1-1l16.51-.14c.87,0,1.1.39,1.12,1.11Z" transform="translate(-43.61 -27.33)"/><path class="a" d="M79.84,97.61c.31.78,0,1.35-.78,1.43L68.43,99a1.58,1.58,0,0,1-1.54-.77,32,32,0,0,1-4.34-15,.93.93,0,0,1,1-1.09l11.75,0c.64,0,1.22,0,1.3.86A40.64,40.64,0,0,0,79.84,97.61Z" transform="translate(-43.61 -27.33)"/><path class="a" d="M129.56,103.22a61.25,61.25,0,0,1,8.85,14.57c.31.62-.16,1.32-.65,1.87a71.67,71.67,0,0,1-8.59,7.62c-.4.4-.82,0-1-.26l-3.36-4.71c-.43-.69-.56-.83-1.39-.38a37,37,0,0,0-10.92,12,2.5,2.5,0,0,1-1.65,1.48c-6.9,1.84-13.7,1.64-20.41.68a.59.59,0,0,1-.28-.79c2.95-4.67,6.58-9.69,8.31-15.57.23-.57.39-.9,1.12-.89,10.92-.16,21.55-5.64,29.14-15.76A.53.53,0,0,1,129.56,103.22Z" transform="translate(-43.61 -27.33)"/><path class="a" d="M96.56,120.07A61.18,61.18,0,0,1,87.8,135a1.2,1.2,0,0,1-1.27.59,64,64,0,0,1-11.39-3c-.57-.28-.48-.67-.2-1.1l2.37-4.77c.45-.94.43-1.41-.38-1.9a37.92,37.92,0,0,0-15.82-3.91,2.06,2.06,0,0,1-1.85-.57,47.8,47.8,0,0,1-11.63-17.61c-.07-.32-.08-.54.41-.55a104.85,104.85,0,0,0,17.84-.76c.61-.09,1.09-.07,1.42.52a37.07,37.07,0,0,0,28.34,16.7C96.65,118.72,96.9,119.33,96.56,120.07Z" transform="translate(-43.61 -27.33)"/><path class="a" d="M64.82,99.56c-6.69.65-12.43,1.15-17.62.49a1.56,1.56,0,0,1-1.06-1.22,57.9,57.9,0,0,1-2.52-12.26c0-.82.31-.74.69-.8l5-.19c1.08-.08,1.28-.51,1.31-1.49-.42-5.77-2.33-10.29-5-15.57a3.4,3.4,0,0,1-.11-2.63A56.66,56.66,0,0,1,55.25,47a.43.43,0,0,1,.8,0c2.69,5,5.61,10.68,9.55,15.69a1.2,1.2,0,0,1,0,1.5,38.71,38.71,0,0,0-.41,34.34C65.64,99.53,65,99.49,64.82,99.56Z" transform="translate(-43.61 -27.33)"/></svg>